<svg xmlns="http://www.w3.org/2000/svg" viewBox="0 0 22.14 21.21"><defs><style>.cls-1{fill:#ffd110;}</style></defs><g id="Capa_2" data-name="Capa 2"><g id="Capa_1-2" data-name="Capa 1"><path class="cls-1" d="M22.08,8a1.17,1.17,0,0,0-1-.81l-6.39-.58L12.15.71A1.18,1.18,0,0,0,10,.71L7.46,6.63l-6.39.58A1.16,1.16,0,0,0,.06,8,1.18,1.18,0,0,0,.4,9.27L5.23,13.5,3.81,19.78A1.16,1.16,0,0,0,4.26,21a1.18,1.18,0,0,0,.69.22,1.21,1.21,0,0,0,.61-.16l5.51-3.3,5.51,3.3A1.17,1.17,0,0,0,17.87,21a1.19,1.19,0,0,0,.46-1.21L16.9,13.5l4.83-4.23A1.18,1.18,0,0,0,22.08,8Z"/></g></g></svg>