<svg xmlns="http://www.w3.org/2000/svg" viewBox="0 0 60.58 60.58"><defs><style>.cls-1{fill:#ffd110;}</style></defs><g id="Capa_2" data-name="Capa 2"><g id="Capa_1-2" data-name="Capa 1"><path class="cls-1" d="M41.91,38a.9.9,0,0,0-1.06-.68l-1.63.35a.89.89,0,0,0,.35,1.75h0l1.63-.35A.89.89,0,0,0,41.91,38Z"/><path class="cls-1" d="M36.12,38.33l-4.51,1A.89.89,0,1,0,32,41.05h0l4.51-1A.89.89,0,0,0,37.16,39,.88.88,0,0,0,36.12,38.33Z"/><path class="cls-1" d="M22,44.44a5.62,5.62,0,1,0,6.67,4.31h0A5.62,5.62,0,0,0,22,44.44Zm2,9.24a3.84,3.84,0,1,1,2.94-4.56h0A3.84,3.84,0,0,1,24,53.68Z"/><path class="cls-1" d="M60.56,41.87l-.76-3.53a.9.9,0,0,0-1.06-.68h0l-3.36.73-6-27.87a.88.88,0,0,0-1.06-.68L30.44,13.69l-10,2.15L17.18.7a.89.89,0,0,0-.87-.7H.89A.89.89,0,0,0,0,.89H0V4.5a.89.89,0,0,0,.89.89H12.67l7.41,34.37a10.64,10.64,0,1,0,13.66,8.81l26.14-5.64a.89.89,0,0,0,.68-1.06Zm-35-2.31L22.39,24.88l9.13-2,1.34,6.21a.89.89,0,0,0,.7.69h.17a.88.88,0,0,0,.74-.39l2.4-3.55,3.36,2.28a.9.9,0,0,0,1.24-.24.93.93,0,0,0,.13-.69L40.26,21l9.13-2,4.25,19.7-22,4.74a10.76,10.76,0,0,0-6.1-3.94ZM36.94,14.11l1.39,6.42,1.06,4.9L37.13,23.9a.91.91,0,0,0-1.24.24L34.16,26.7,31.69,15.24ZM49,17.32l-9.13,2-1.19-5.55,9.13-2ZM30,15.62l1.2,5.55-9.13,2-1.2-5.55Zm-16.56-12H1.78V1.78H15.59l3.3,15.31,4.79,22.22a10.38,10.38,0,0,0-1.85.07L14.27,4.31a.9.9,0,0,0-.88-.7Zm11.67,55a8.87,8.87,0,1,1,6.79-10.54h0a8.89,8.89,0,0,1-6.8,10.54Zm8.31-11.77a10.33,10.33,0,0,0-.7-1.72l25.58-5.52.38,1.79Z"/></g></g></svg>