<svg xmlns="http://www.w3.org/2000/svg" viewBox="0 0 61.42 60.6"><defs><style>.cls-1{fill:#ffd110;}</style></defs><g id="Capa_2" data-name="Capa 2"><g id="Capa_1-2" data-name="Capa 1"><path class="cls-1" d="M61.17,25.71,50.89,12.36a1.2,1.2,0,0,0-1.6-.28L42.65,16.3H34a1,1,0,0,0-.33.06L27,18.29l-7-1.91-6.77-4.3a1.19,1.19,0,0,0-1.58.26L.27,26.42a1.21,1.21,0,0,0,.15,1.67l6,5.13,5.34,7.2a4.26,4.26,0,0,0,2.68,7.15,4.62,4.62,0,0,0-.05.65,4.25,4.25,0,0,0,4.26,4.25h0v.09a4.27,4.27,0,0,0,4.26,4.26,3.68,3.68,0,0,0,.66-.06,4.26,4.26,0,0,0,7.24,2.6l.65-.66.28.22a4.26,4.26,0,0,0,6,0A4.27,4.27,0,0,0,39,55.8a4.24,4.24,0,0,0,4.32-4.32,4.24,4.24,0,0,0,4.32-4.32,4.25,4.25,0,0,0,3.64-6.57l3.9-8.18,5.87-5A1.21,1.21,0,0,0,61.17,25.71Zm-48.33-11,4.86,3.09L7.12,30.68,2.87,27ZM13.52,42,15,40.56l.14-.13a1.84,1.84,0,0,1,1-.4h.19a1.83,1.83,0,0,1,1.32.58,1.9,1.9,0,0,1-.08,2.62l-1.43,1.42A1.85,1.85,0,0,1,13.52,42Zm3.78,7.49a1.81,1.81,0,0,1-.54-1.3,1.85,1.85,0,0,1,.54-1.31l2.85-2.85a1.88,1.88,0,0,1,2.1-.36,1.85,1.85,0,0,1,1,1.91,2,2,0,0,1-.55,1.11l-2.81,2.8a1.82,1.82,0,0,1-2.61,0Zm4.3,4.35a1.86,1.86,0,0,1,0-2.62l2.85-2.84A1.84,1.84,0,1,1,27,51.06l-2.8,2.81a1.85,1.85,0,0,1-2.61,0Zm4.9,3.78a1.85,1.85,0,0,1,0-2.61L28,53.57l.13-.12h0a1.93,1.93,0,0,1,.82-.38h0l.15,0h.2a1.85,1.85,0,0,1,1.32.58.76.76,0,0,1,.11.14,1.91,1.91,0,0,1-.2,2.49l-1.42,1.41A1.85,1.85,0,0,1,26.5,57.65ZM49,44.21a1.85,1.85,0,0,1-2.61,0l-.08-.07-7.74-7.83A1.21,1.21,0,0,0,36.81,38l7.83,7.91h0a1.85,1.85,0,0,1,0,2.61,1.85,1.85,0,0,1-2.61,0l-5.24-5.29a1.2,1.2,0,0,0-1.7,0,1.21,1.21,0,0,0,0,1.71l5.16,5.21.08.09a1.85,1.85,0,0,1-2.61,2.61L34.85,50a1.21,1.21,0,0,0-1.71,1.7l2.78,2.8a.39.39,0,0,0,.08.1,1.85,1.85,0,0,1-2.61,2.61c-.08-.08-.18-.14-.27-.22s-.1-.1-.06-.19.1-.19.14-.29a3.19,3.19,0,0,0,.11-.33,4.28,4.28,0,0,0,.16-1.85,4.23,4.23,0,0,0-3.59-3.63,4.31,4.31,0,0,0-1-3.87,4.23,4.23,0,0,0-3-1.33h-.13a4.2,4.2,0,0,0-4.17-4.34,4.5,4.5,0,0,0-1,.1,4.19,4.19,0,0,0-4.12-3.61,4.31,4.31,0,0,0-2.91,1.09L8.79,32.43,19.93,18.86l3.55,1L18.84,28a4.26,4.26,0,0,0,1.61,5.81l.19.1h0a3.74,3.74,0,0,0,.51.22,4.28,4.28,0,0,0,5.09-1.93l3-5.31,5.38.38L49,41.6A1.85,1.85,0,0,1,49,44.21Zm.5-5.52L36,25.26a.6.6,0,0,1-.08-.08,1.19,1.19,0,0,0-.69-.27l-6.59-.47a1.23,1.23,0,0,0-1.13.61l-3.39,6a1.82,1.82,0,0,1-1.11.87,1.8,1.8,0,0,1-1.4-.17,1.85,1.85,0,0,1-.7-2.52l4.52-8,1.83-.52,0,0,6.84-2h8.26L52.74,31.82Zm4.86-8.76L44.78,17.8l4.87-3.1,8.91,11.58Z"/><path class="cls-1" d="M37.21,14a1.2,1.2,0,0,0,.85-.35l8.23-8.23a1.2,1.2,0,0,0,0-1.7,1.21,1.21,0,0,0-1.71,0L36.36,12A1.21,1.21,0,0,0,37.21,14Z"/><path class="cls-1" d="M23.36,13.69A1.21,1.21,0,1,0,25.06,12L16.83,3.76a1.2,1.2,0,0,0-1.7,1.7Z"/><path class="cls-1" d="M30.71,14a1.21,1.21,0,0,0,1.2-1.21V6A1.21,1.21,0,1,0,29.5,6v6.8A1.21,1.21,0,0,0,30.71,14Z"/><path class="cls-1" d="M29.6,1.66a1.2,1.2,0,0,0,2.25-.09A1.19,1.19,0,0,0,31.44.25,1.22,1.22,0,0,0,30,.2,1.21,1.21,0,0,0,29.6,1.66Z"/></g></g></svg>