<svg xmlns="http://www.w3.org/2000/svg" viewBox="0 0 51.67 60.58"><defs><style>.cls-1{fill:#ffd110;}</style></defs><g id="Capa_2" data-name="Capa 2"><g id="Capa_1-2" data-name="Capa 1"><path class="cls-1" d="M50.73,10.46A100.76,100.76,0,0,1,26.48.18a1.25,1.25,0,0,0-1.29,0A98.26,98.26,0,0,1,.94,10.46,1.27,1.27,0,0,0,0,11.69v13A37.45,37.45,0,0,0,11.38,52.08c5.58,5.48,12.09,8.5,14.45,8.5s8.87-3,14.46-8.5A37.45,37.45,0,0,0,51.67,24.71v-13A1.28,1.28,0,0,0,50.73,10.46ZM49.12,24.71A35,35,0,0,1,38.51,50.26C33,55.65,27.14,58,25.83,58s-7.18-2.39-12.67-7.78A35,35,0,0,1,2.55,24.71v-12A100.4,100.4,0,0,0,25.83,2.75a103.5,103.5,0,0,0,23.29,9.91Z"/><path class="cls-1" d="M14.54,12.52a1.28,1.28,0,0,0-1.66-.72c-2.27.89-4.61,1.72-6.94,2.45a1.28,1.28,0,0,0-.89,1.22v4.92a1.28,1.28,0,0,0,2.55,0v-4c2.09-.68,4.18-1.43,6.22-2.23A1.28,1.28,0,0,0,14.54,12.52Z"/><path class="cls-1" d="M17,12.76a1.34,1.34,0,0,0,.51-.11h0A1.27,1.27,0,0,0,18.15,11a1.29,1.29,0,0,0-1.69-.65h0A1.27,1.27,0,0,0,15.79,12,1.28,1.28,0,0,0,17,12.76Z"/><path class="cls-1" d="M41,41.09a1.29,1.29,0,0,0-1.77.37A31,31,0,0,1,35.59,46a32.11,32.11,0,0,1-3.65,3.25,1.27,1.27,0,1,0,1.54,2,34.44,34.44,0,0,0,3.94-3.51,33.13,33.13,0,0,0,4-5A1.29,1.29,0,0,0,41,41.09Z"/><path class="cls-1" d="M29,51.29l-.08,0a1.28,1.28,0,0,0,.64,2.38,1.33,1.33,0,0,0,.64-.17l.08,0A1.27,1.27,0,1,0,29,51.29Z"/><path class="cls-1" d="M17.15,27.69a4.14,4.14,0,1,0-5.86,5.86l7.52,7.53a4.15,4.15,0,0,0,5.86,0L40.38,25.37a4.14,4.14,0,0,0,0-5.86,4.13,4.13,0,0,0-5.86,0L21.74,32.29Zm19.17-6.38a1.59,1.59,0,0,1,2.26,0,1.61,1.61,0,0,1,0,2.26L22.87,39.27a1.55,1.55,0,0,1-1.13.47,1.56,1.56,0,0,1-1.13-.47l-7.52-7.52a1.61,1.61,0,0,1,0-2.26,1.61,1.61,0,0,1,2.25,0l5.5,5.5a1.28,1.28,0,0,0,1.8,0Z"/></g></g></svg>