<svg xmlns="http://www.w3.org/2000/svg" viewBox="0 0 55.51 55.51"><defs><style>.cls-1{fill:#ffd110;}</style></defs><g id="Capa_2" data-name="Capa 2"><g id="Capa_1-2" data-name="Capa 1"><path class="cls-1" d="M45.1,46.18a1.09,1.09,0,1,0,0,2.17,1.09,1.09,0,0,0,0-2.17Z"/><path class="cls-1" d="M48.35,5.14V3.25A3.26,3.26,0,0,0,45.1,0H10.41A3.25,3.25,0,0,0,7.16,3.25V5.14C.08,18.2,0,17.81,0,18.43H0V20.6a5.41,5.41,0,0,0,2.82,4.62v29.2A1.08,1.08,0,0,0,3.9,55.51H51.6a1.09,1.09,0,0,0,1.09-1.09V25.22a5.46,5.46,0,0,0,2.82-4.62V18.43h0C55.51,17.81,55.35,18.07,48.35,5.14Zm4.24,12.21H45.88L42.27,6.5h4.36ZM37.51,19.51H44V20.6a3.25,3.25,0,0,1-6.5,0Zm-.17-2.16L35.54,6.5H40l3.61,10.85Zm-28-14.1a1.08,1.08,0,0,1,1.09-1.08H45.1a1.08,1.08,0,0,1,1.08,1.08V4.34H9.32Zm26,16.26V20.6a3.25,3.25,0,1,1-6.5,0V19.51Zm-6.5-2.16V6.5h4.5l1.81,10.85Zm-8.48,0L22.17,6.5h4.5V17.35Zm6.31,2.16V20.6a3.26,3.26,0,0,1-6.51,0V19.51ZM11.91,17.35,15.53,6.5H20L18.16,17.35ZM18,19.51V20.6a3.26,3.26,0,0,1-6.51,0V19.51ZM8.88,6.5h4.36L9.63,17.35H2.92ZM2.17,20.6V19.51H9.32V20.6a3.56,3.56,0,0,1-3.57,3.25,3.52,3.52,0,0,1-1.42-.3A3.37,3.37,0,0,1,2.17,20.6ZM22.33,53.34H11.49V44H22.33Zm0-11.49H11.49V32.52H22.33ZM50.52,53.34h-26V31.44a1.08,1.08,0,0,0-1.08-1.08h-13a1.08,1.08,0,0,0-1.09,1.08v21.9H5V26a6.33,6.33,0,0,0,.76.05A6,6,0,0,0,9.7,24.47a5.34,5.34,0,0,0,.65-.7,5.42,5.42,0,0,0,8.73.08,5.42,5.42,0,0,0,8.67,0,5.42,5.42,0,0,0,8.68,0,5.41,5.41,0,0,0,8.72-.08,6.13,6.13,0,0,0,.65.7,6,6,0,0,0,4,1.55,6.47,6.47,0,0,0,.76-.05ZM53.34,20.6a3.38,3.38,0,0,1-2.24,3,3.71,3.71,0,0,1-1.34.26,3.57,3.57,0,0,1-3.58-3.25V19.51h7.16Z"/><path class="cls-1" d="M47.27,41.85H46.18V31.44a1.08,1.08,0,0,0-1.08-1.08h-13A1.08,1.08,0,0,0,31,31.44V41.85H29.92a1.08,1.08,0,0,0,0,2.16H47.27a1.08,1.08,0,0,0,0-2.16Zm-3.26,0H33.17V32.52H44Z"/><path class="cls-1" d="M40.76,46.18H32.09a1.09,1.09,0,0,0,0,2.17h8.67a1.09,1.09,0,1,0,0-2.17Z"/></g></g></svg>