<svg xmlns="http://www.w3.org/2000/svg" viewBox="0 0 56.48 55.82"><defs><style>.cls-1{fill:#ffd110;}</style></defs><g id="Capa_2" data-name="Capa 2"><g id="Capa_1-2" data-name="Capa 1"><path class="cls-1" d="M37.72,35.89a2.28,2.28,0,0,1-2.42-2.1,2.45,2.45,0,0,1,4.85,0,1.11,1.11,0,1,0,2.21,0,4.39,4.39,0,0,0-3.53-4.18V29a1.11,1.11,0,1,0-2.21,0v.57a4.39,4.39,0,0,0-3.53,4.18,4.48,4.48,0,0,0,4.63,4.31,2.12,2.12,0,1,1-2.42,2.1,1.11,1.11,0,0,0-2.21,0,4.39,4.39,0,0,0,3.53,4.18v.48a1.11,1.11,0,0,0,2.21,0v-.48a4.39,4.39,0,0,0,3.53-4.18A4.49,4.49,0,0,0,37.72,35.89Z"/><path class="cls-1" d="M49.81,29.33a14.36,14.36,0,0,0-5.87-5.19,1.1,1.1,0,1,0-1,2,12.16,12.16,0,0,1,5.47,16.64,1.1,1.1,0,0,0,.46,1.49,1,1,0,0,0,.51.13,1.11,1.11,0,0,0,1-.58,14.45,14.45,0,0,0,1.67-6.73A14.3,14.3,0,0,0,49.81,29.33Z"/><path class="cls-1" d="M39.46,22.73h-.08a1.1,1.1,0,1,0,0,2.2h.07a1.1,1.1,0,1,0,0-2.2Z"/><path class="cls-1" d="M32.48,48a12.21,12.21,0,0,1-6.89-10.94A12.09,12.09,0,0,1,27,31.38a1.11,1.11,0,1,0-2-1,14.42,14.42,0,0,0-1.67,6.73A14.34,14.34,0,0,0,31.52,50a1.2,1.2,0,0,0,.48.11,1.1,1.1,0,0,0,.48-2.1Z"/><path class="cls-1" d="M36.07,49.2H36a1.11,1.11,0,1,0,0,2.21h.07a1.11,1.11,0,1,0,0-2.21Z"/><path class="cls-1" d="M42.74,19a5.56,5.56,0,0,0-.49-.9h2.87a5.08,5.08,0,1,0,0-10.15H36.29a5,5,0,0,0,.89-2.87A5.09,5.09,0,0,0,32.1,0h-27a5.08,5.08,0,0,0,0,10.15h8.84a5.07,5.07,0,0,0,0,5.74H11a5.07,5.07,0,0,0-3.15,9,5.07,5.07,0,0,0,0,8,5.06,5.06,0,0,0,0,7.94,5.07,5.07,0,0,0,3.15,9H24A18.75,18.75,0,1,0,42.74,19Zm2.38-8.84a2.87,2.87,0,1,1,0,5.74h-27a2.87,2.87,0,1,1,0-5.74Zm-40-2.21a2.87,2.87,0,0,1,0-5.73h27a2.87,2.87,0,1,1,0,5.73Zm6,10.15h27a2.94,2.94,0,0,1,1.25.29c-.52,0-1.05-.07-1.58-.07a18.68,18.68,0,0,0-13.27,5.52H11a2.87,2.87,0,0,1,0-5.74Zm0,8H22.57a18.59,18.59,0,0,0-2.83,5.73H11A2.87,2.87,0,1,1,11,26ZM11,34h8.2A18.5,18.5,0,0,0,19,37.07a19.34,19.34,0,0,0,.18,2.65H11A2.87,2.87,0,0,1,11,34Zm0,13.68a2.87,2.87,0,0,1,0-5.74h8.58a18.67,18.67,0,0,0,2.65,5.74Zm26.7,6A16.55,16.55,0,1,1,54.28,37.07,16.57,16.57,0,0,1,37.73,53.62Z"/></g></g></svg>