<svg xmlns="http://www.w3.org/2000/svg" viewBox="0 0 47.61 62.79"><defs><style>.cls-1{fill:#ffd110;}</style></defs><g id="Capa_2" data-name="Capa 2"><g id="Capa_1-2" data-name="Capa 1"><path class="cls-1" d="M31.82,7.82A17.88,17.88,0,0,0,9.64,34.75a1,1,0,0,0,1.38.17,1,1,0,0,0,.18-1.39A15.9,15.9,0,0,1,30.93,9.59a1,1,0,1,0,.89-1.77Z"/><path class="cls-1" d="M39.72,15.73a1,1,0,0,0-1.77.89A15.9,15.9,0,0,1,14,36.35a1,1,0,1,0-1.22,1.56A17.88,17.88,0,0,0,39.72,15.73Z"/><path class="cls-1" d="M37.16,12c-.24-.28-.5-.55-.76-.82s-.54-.52-.82-.76a1,1,0,0,0-1.31,1.48c.25.22.5.45.73.68s.46.48.68.73a1,1,0,0,0,.74.33A1,1,0,0,0,37.16,12Z"/><path class="cls-1" d="M47.11,25.56a3.36,3.36,0,0,0,0-3.51l-1.3-2.14a1.34,1.34,0,0,1-.18-.94L46,16.51a3.36,3.36,0,0,0-1.34-3.25l-2-1.47a1.39,1.39,0,0,1-.54-.8l-.58-2.42A3.36,3.36,0,0,0,39,6.08l-2.42-.59a1.33,1.33,0,0,1-.8-.53l-1.47-2A3.34,3.34,0,0,0,31.1,1.6L28.63,2a1.42,1.42,0,0,1-.94-.18L25.56.49a3.38,3.38,0,0,0-3.51,0L19.91,1.8A1.4,1.4,0,0,1,19,2L16.51,1.6a3.34,3.34,0,0,0-3.25,1.34L11.79,5a1.33,1.33,0,0,1-.8.53l-2.42.59A3.36,3.36,0,0,0,6.08,8.56L5.49,11a1.33,1.33,0,0,1-.53.8l-2,1.47A3.34,3.34,0,0,0,1.6,16.51L2,19a1.4,1.4,0,0,1-.18.94L.49,22.05a3.4,3.4,0,0,0,0,3.51L1.8,27.69a1.42,1.42,0,0,1,.18.94L1.6,31.1a3.34,3.34,0,0,0,1.34,3.25l2,1.47a1.3,1.3,0,0,1,.53.8L6.08,39a3.36,3.36,0,0,0,2.48,2.49l1,.24L2.72,57.08a1,1,0,0,0,.1,1,1,1,0,0,0,.92.4l5.52-.66,3.18,4.56a1,1,0,0,0,.81.42h.09a1,1,0,0,0,.81-.58l7-15.64.89.54a3.33,3.33,0,0,0,3.51,0l.92-.56,7,15.66a1,1,0,0,0,.81.58h.09a1,1,0,0,0,.81-.42l3.18-4.56,5.52.66a1,1,0,0,0,.92-.4,1,1,0,0,0,.1-1L38.07,41.76l1-.23A3.36,3.36,0,0,0,41.53,39l.58-2.42a1.39,1.39,0,0,1,.54-.8l2-1.47A3.36,3.36,0,0,0,46,31.1l-.39-2.47a1.42,1.42,0,0,1,.19-.94Zm-34,34.24-2.52-3.61a1,1,0,0,0-.93-.42l-4.37.52,6.25-13.94a1.22,1.22,0,0,1,.3.3l1.47,2a3.8,3.8,0,0,0,.46.52l-3.29,7.34a1,1,0,0,0,.91,1.39,1,1,0,0,0,.9-.58L15.52,46a3,3,0,0,0,1,0L19,45.62a1.36,1.36,0,0,1,.45,0Zm29.35-3.51L38,55.77a1,1,0,0,0-.93.42L34.59,59.8,28.23,45.62a1.08,1.08,0,0,1,.4,0L31.1,46a3.24,3.24,0,0,0,1,0l3.28,7.32a1,1,0,0,0,1.31.49,1,1,0,0,0,.49-1.3l-3.3-7.37a3.42,3.42,0,0,0,.44-.49l1.47-2a1.29,1.29,0,0,1,.33-.33Zm3-31.76-1.3,2.13a3.44,3.44,0,0,0-.45,2.28l.39,2.47a1.38,1.38,0,0,1-.56,1.34l-2,1.47a3.39,3.39,0,0,0-1.29,1.93l-.59,2.43a1.36,1.36,0,0,1-1,1l-2.43.59a3.39,3.39,0,0,0-1.93,1.29l-1.47,2a1.38,1.38,0,0,1-1.34.56l-2.47-.39a3.43,3.43,0,0,0-2.28.45l-2.13,1.3a1.36,1.36,0,0,1-1.45,0l-2.14-1.3a3.4,3.4,0,0,0-1.75-.49,3,3,0,0,0-.52,0l-2.47.39a1.38,1.38,0,0,1-1.34-.56l-1.47-2a3.42,3.42,0,0,0-1.93-1.29L9,39.6a1.39,1.39,0,0,1-1-1l-.58-2.43a3.36,3.36,0,0,0-1.3-1.93l-2-1.47a1.38,1.38,0,0,1-.56-1.34l.39-2.47a3.43,3.43,0,0,0-.45-2.28L2.18,24.53a1.4,1.4,0,0,1,0-1.45l1.31-2.14a3.41,3.41,0,0,0,.45-2.27L3.55,16.2a1.38,1.38,0,0,1,.56-1.34l2-1.47a3.39,3.39,0,0,0,1.3-1.93L8,9A1.39,1.39,0,0,1,9,8l2.43-.58a3.36,3.36,0,0,0,1.93-1.3l1.47-2a1.38,1.38,0,0,1,1.34-.56l2.47.39a3.41,3.41,0,0,0,2.27-.45l2.14-1.31a1.4,1.4,0,0,1,1.45,0l2.13,1.31a3.43,3.43,0,0,0,2.28.45l2.47-.39a1.38,1.38,0,0,1,1.34.56l1.47,2a3.36,3.36,0,0,0,1.93,1.3L38.58,8a1.36,1.36,0,0,1,1,1l.59,2.43a3.39,3.39,0,0,0,1.29,1.93l2,1.47a1.38,1.38,0,0,1,.56,1.34l-.39,2.47a3.41,3.41,0,0,0,.45,2.27l1.3,2.14A1.36,1.36,0,0,1,45.42,24.53Z"/><path class="cls-1" d="M35.38,20.73a1.77,1.77,0,0,0-1.49-1.23l-5.95-.7-2.51-5.45a1.79,1.79,0,0,0-3.25,0L19.67,18.8l-6,.7a1.79,1.79,0,0,0-1,3.09l4.4,4.07-1.17,5.88a1.8,1.8,0,0,0,.71,1.8,1.76,1.76,0,0,0,1.05.34,1.69,1.69,0,0,0,.87-.23l5.23-2.93L29,34.45a1.78,1.78,0,0,0,2.62-1.91l-1.17-5.88,4.41-4.07A1.77,1.77,0,0,0,35.38,20.73Zm-6.64,4.85a1,1,0,0,0-.29.92l1.19,6-5.35-3a1,1,0,0,0-.49-.13.94.94,0,0,0-.48.13l-5.35,3,1.19-6a1,1,0,0,0-.3-.92l-4.5-4.16,6.09-.72a1,1,0,0,0,.78-.57l2.57-5.57,2.57,5.57a1,1,0,0,0,.79.57l6.09.72Z"/></g></g></svg>