<svg xmlns="http://www.w3.org/2000/svg" viewBox="0 0 79.75 50.45"><defs><style>.cls-1{fill:#ffd110;}</style></defs><g id="Capa_2" data-name="Capa 2"><g id="Capa_1-2" data-name="Capa 1"><path class="cls-1" d="M74.16,21.39,72.1,13.12a1.25,1.25,0,0,0,1-1.22V10.57a5.25,5.25,0,0,0-5.25-5.24h-9.4V2.58A2.59,2.59,0,0,0,55.86,0H7.91A2.59,2.59,0,0,0,5.33,2.58V25.22a1.25,1.25,0,1,0,2.49,0V2.58a.08.08,0,0,1,.09-.08h48a.08.08,0,0,1,.08.08V25.22a1.25,1.25,0,0,0,2.5,0V23.81H73.17a4.08,4.08,0,0,1,3.88,2.83H73.17a1.25,1.25,0,0,0-1.25,1.25v2.66a3.92,3.92,0,0,0,3.91,3.91h1.42V40H74A7.9,7.9,0,0,0,59,40h-.6V30.55a1.25,1.25,0,1,0-2.5,0V40H30a7.9,7.9,0,0,0-14.94,0H7.91a.09.09,0,0,1-.09-.09V37.13h5.42a1.25,1.25,0,0,0,0-2.5h-12a1.25,1.25,0,0,0,0,2.5H5.33v2.74a2.58,2.58,0,0,0,2.58,2.58h6.74v.09a7.91,7.91,0,1,0,15.82,0,.28.28,0,0,0,0-.09H58.61s0,.06,0,.09a7.91,7.91,0,1,0,15.82,0v-.09H78.5a1.24,1.24,0,0,0,1.25-1.24V27.89A6.59,6.59,0,0,0,74.16,21.39ZM58.44,7.83h9.4a2.75,2.75,0,0,1,2.75,2.74v.09H58.44Zm0,13.48V13.15H69.53l2,8.16ZM22.56,48A5.41,5.41,0,1,1,28,42.54,5.42,5.42,0,0,1,22.56,48Zm44,0a5.41,5.41,0,1,1,5.41-5.41A5.42,5.42,0,0,1,66.51,48ZM77.25,32H75.83a1.42,1.42,0,0,1-1.41-1.42V29.14h2.83V32Z"/><path class="cls-1" d="M22.56,40a2.58,2.58,0,1,0,2.58,2.58A2.58,2.58,0,0,0,22.56,40Z"/><path class="cls-1" d="M66.51,40a2.58,2.58,0,1,0,2.58,2.58A2.58,2.58,0,0,0,66.51,40Z"/><path class="cls-1" d="M51.86,34.63H33.21a1.25,1.25,0,0,0,0,2.5H51.86a1.25,1.25,0,0,0,0-2.5Z"/><path class="cls-1" d="M19.9,29.3h-16a1.25,1.25,0,0,0,0,2.5h16a1.25,1.25,0,0,0,0-2.5Z"/><path class="cls-1" d="M43.42,12.35a1.27,1.27,0,0,0-1.77,0L30.55,23.46l-5.78-5.78A1.25,1.25,0,1,0,23,19.45l6.66,6.66a1.26,1.26,0,0,0,1.76,0l12-12A1.25,1.25,0,0,0,43.42,12.35Z"/></g></g></svg>