<svg xmlns="http://www.w3.org/2000/svg" viewBox="0 0 57.68 57.68"><defs><style>.cls-1{fill:#ffd110;}</style></defs><g id="Capa_2" data-name="Capa 2"><g id="Capa_1-2" data-name="Capa 1"><path class="cls-1" d="M49.23,8.45a28.83,28.83,0,0,0-40.78,0,28.83,28.83,0,0,0,0,40.78,28.83,28.83,0,0,0,40.78,0,28.83,28.83,0,0,0,0-40.78ZM48,48A27,27,0,1,1,9.72,9.72,27,27,0,1,1,48,48Z"/><path class="cls-1" d="M5.41,28.84A23.44,23.44,0,0,1,41.86,9.35a.9.9,0,0,0,1.25-.24.89.89,0,0,0-.25-1.25A25.23,25.23,0,0,0,10,45.66a.89.89,0,0,0,.67.3.85.85,0,0,0,.6-.23.89.89,0,0,0,.07-1.27A23.41,23.41,0,0,1,5.41,28.84Z"/><path class="cls-1" d="M49.83,14.82a.91.91,0,0,0-1.25-.25.89.89,0,0,0-.25,1.25A23.44,23.44,0,0,1,14.09,47.05.9.9,0,0,0,13,48.45,25.24,25.24,0,0,0,49.83,14.82Z"/><path class="cls-1" d="M44.46,11.37c.61.55,1.19,1.13,1.74,1.73a.92.92,0,0,0,.67.29.87.87,0,0,0,.6-.23.89.89,0,0,0,.06-1.27A21.89,21.89,0,0,0,45.66,10a.9.9,0,0,0-1.2,1.34Z"/><path class="cls-1" d="M28.84,11.72a.9.9,0,0,0,.9-.9V8.11a.9.9,0,0,0-1.8,0v2.71A.9.9,0,0,0,28.84,11.72Z"/><path class="cls-1" d="M27.94,46.87v2.7a.9.9,0,0,0,1.8,0v-2.7a.9.9,0,0,0-1.8,0Z"/><path class="cls-1" d="M11.72,28.84a.9.9,0,0,0-.9-.9H8.11a.9.9,0,0,0,0,1.8h2.71A.9.9,0,0,0,11.72,28.84Z"/><path class="cls-1" d="M46,28.84a.9.9,0,0,0,.9.9h2.7a.9.9,0,0,0,0-1.8h-2.7A.9.9,0,0,0,46,28.84Z"/><path class="cls-1" d="M20.61,12.78l-1.35-2.34a.9.9,0,1,0-1.56.9l1.35,2.34a.89.89,0,0,0,.78.45.92.92,0,0,0,.45-.12A.9.9,0,0,0,20.61,12.78Z"/><path class="cls-1" d="M38.63,44a.9.9,0,0,0-1.56.9l1.35,2.34a.91.91,0,0,0,.79.45.85.85,0,0,0,.45-.12A.91.91,0,0,0,40,46.34Z"/><path class="cls-1" d="M10.89,40.11a.92.92,0,0,0,.45-.12l2.34-1.36a.9.9,0,1,0-.9-1.56l-2.34,1.35a.91.91,0,0,0-.33,1.24A.9.9,0,0,0,10.89,40.11Z"/><path class="cls-1" d="M44.45,20.73a.89.89,0,0,0,.45-.12l2.34-1.35a.9.9,0,1,0-.9-1.56L44,19.05a.9.9,0,0,0,.45,1.68Z"/><path class="cls-1" d="M39.66,10.11a.91.91,0,0,0-1.24.33l-1.35,2.34A.9.9,0,0,0,37.4,14a.92.92,0,0,0,.45.12.89.89,0,0,0,.78-.45L40,11.34A.91.91,0,0,0,39.66,10.11Z"/><path class="cls-1" d="M20.28,43.67a.9.9,0,0,0-1.23.33L17.7,46.34A.89.89,0,0,0,18,47.57a.8.8,0,0,0,.45.12.9.9,0,0,0,.78-.45l1.35-2.34A.9.9,0,0,0,20.28,43.67Z"/><path class="cls-1" d="M44,38.63,46.34,40a.92.92,0,0,0,.45.12.89.89,0,0,0,.78-.45.91.91,0,0,0-.33-1.24L44.9,37.07a.9.9,0,0,0-.9,1.56Z"/><path class="cls-1" d="M13.68,19.05,11.34,17.7a.9.9,0,1,0-.9,1.56l2.34,1.35a.92.92,0,0,0,.45.12.9.9,0,0,0,.45-1.68Z"/><path class="cls-1" d="M35.12,40.61a.9.9,0,0,0,.77-1.35l-5-8.66a2.71,2.71,0,0,0-1.15-4.31V14.42a.9.9,0,1,0-1.8,0V26.29a2.7,2.7,0,0,0,.9,5.25,2.63,2.63,0,0,0,.49,0l5,8.66A.91.91,0,0,0,35.12,40.61ZM27.94,28.84a.9.9,0,1,1,.9.9A.9.9,0,0,1,27.94,28.84Z"/></g></g></svg>