<svg xmlns="http://www.w3.org/2000/svg" viewBox="0 0 85.76 91.49"><defs><style>.cls-1{fill:#ffd110;}</style></defs><g id="Capa_2" data-name="Capa 2"><g id="Capa_1-2" data-name="Capa 1"><path class="cls-1" d="M85,20.19,43.46.13a1.38,1.38,0,0,0-1.16,0L.76,20.19A1.32,1.32,0,0,0,0,21.39v48.7A1.33,1.33,0,0,0,.76,71.3l41.54,20a1.27,1.27,0,0,0,1.16,0L85,71.3a1.34,1.34,0,0,0,.76-1.21V21.39A1.34,1.34,0,0,0,85,20.19ZM42.88,2.83,81.34,21.39,70.19,26.77,70,26.63,31.77,8.19ZM28.74,9.71l38.4,18.54L59.27,32,20.89,13.51ZM68,30.79v14l-7.35,3.55v-14Zm15,38.46L44.22,88V42.29l9.27-4.48a1.34,1.34,0,0,0-1.17-2.41L42.88,40l-3.72-1.8A1.34,1.34,0,1,0,38,40.58l3.54,1.71V88L2.68,69.25V23.53L32.27,37.81a1.37,1.37,0,0,0,.58.14,1.34,1.34,0,0,0,.59-2.55l-29-14L17.74,15,58,34.4l0,0V50.51a1.33,1.33,0,0,0,.63,1.13,1.29,1.29,0,0,0,1.29.07l10-4.84a1.34,1.34,0,0,0,.76-1.2V29.5l12.36-6V69.25Z"/><path class="cls-1" d="M13.74,64.06l-6.1-3a1.34,1.34,0,0,0-1.16,2.42l6.09,2.94a1.37,1.37,0,0,0,.59.13,1.34,1.34,0,0,0,1.2-.76A1.32,1.32,0,0,0,13.74,64.06Z"/><path class="cls-1" d="M19.35,60.4,7.65,54.76a1.34,1.34,0,1,0-1.16,2.41l11.69,5.65a1.37,1.37,0,0,0,.59.13,1.34,1.34,0,0,0,.58-2.55Z"/></g></g></svg>